<svg xmlns="http://www.w3.org/2000/svg" width="1000" height="768" viewBox="0 0 1000 768">
  <defs>
    <linearGradient id="a" x1="2.60483099%" y1="100%" y2="100%">
      <stop stop-color="#FFF" stop-opacity="0" offset="0%"/>
      <stop stop-opacity=".2" offset="100%"/>
    </linearGradient>
  </defs>
  <g fill="none" fill-rule="evenodd">
    <path fill="#D8D8D8" d="M353.773585 765.157264c3.700802-6.422925 18.727436-32.185049 23.556582-57.540556 7.526247-39.51668 15.751594-147.420148 15.751594-147.420148h157.232704s9.563908 108.369692 17.001359 147.420148c4.922927 25.847905 18.92912 51.31395 22.306823 57.540556.509337.938934-.000005 1.427503-.000005 1.427503H353.773585s-.572716-.433526 0-1.427503z"/>
    <path fill="#000" fill-opacity=".1" d="M383.486885 663.390663c.547879-4.824288 1.085766-9.763758 1.609795-14.742014h174.117199c.566866 4.979914 1.145021 9.919577 1.729398 14.742014H383.486885z"/>
    <rect width="943.396226" height="117.936118" y="530.712531" fill="#D8D8D8" rx="7.45767768"/>
    <ellipse cx="472.435142" cy="606.633907" fill="#4A4A4A" rx="18.4257075" ry="18.4275184"/>
    <path fill="#000" d="M943.396226 526.984354V7.45635294C943.396226 3.34283824 940.057903 0 935.939872 0H7.45635414C3.34606078 0 0 3.33832292 0 7.45635294V560.19656h943.396226v-33.212206z"/>
    <path fill="#FF7C7C" d="M29.7169811 29.7199017h884.433962v499.7543H29.7169811z"/>
    <g transform="translate(490 377)">
      <path fill="url(#a)" d="M233.403573.395577h1.124729V391H.09434v-1.873977L233.403573.395577z"/>
      <rect width="283.018868" height="389.189189" x="226.981132" y=".395577" fill="#292929" rx="11.3858165"/>
      <path fill="#CDF576" d="M244.433962 29.17199H492.54717v332.108108H244.433962z"/>
      <ellipse cx="368.653221" cy="376.405701" fill="#4A4A4A" rx="8.29538061" ry="8.29793004"/>
    </g>
    <g transform="translate(515 521)">
      <path fill="url(#a)" d="M147.029782.277641h.706067v245.307126H.566038v-1.176894L147.029782.277641z"/>
      <rect width="122.641509" height="245.307125" x="140.660377" y=".277641" fill="#000" rx="9.75557461"/>
      <path fill="#51CEC5" d="M146.320755 25.751843h111.213551v194.573152H146.320755z"/>
      <ellipse cx="201.981132" cy="233.040652" fill="#4A4A4A" rx="8.3619211" ry="8.36274291"/>
    </g>
  </g>
</svg>
