<svg xmlns="http://www.w3.org/2000/svg" class="icon--sublime-text" viewBox="0 0 1080 620">
  <g fill="none" fill-rule="evenodd">
    <rect width="1080" height="620" fill="#E1E1E1" class="size" rx="5"/>
    <circle cx="20" cy="15" r="5" fill="#FF0012" class="size"/>
    <circle cx="40" cy="15" r="5" fill="#FFB100" class="size"/>
    <circle cx="60" cy="15" r="5" fill="#0A0" class="size"/>
    <path fill="#272822" d="M1080 614.922c0 2.804-2.233 5.078-4.995 5.078H4.995C2.235 620 0 617.715 0 614.922V30h1080v584.922z" class="size"/>
    <rect width="100" height="20" x="20" y="70" fill="#FB1F6F" class="text-el text-pink" rx="5"/>
    <rect width="150" height="20" x="40" y="110" fill="#FB1F6F" class="text-el text-pink" rx="5"/>
    <rect width="40" height="20" x="40" y="150" fill="#FB1F6F" class="text-el text-pink" rx="5"/>
    <rect width="120" height="20" x="60" y="190" fill="#FB1F6F" class="text-el text-pink" rx="5"/>
    <rect width="70" height="20" x="80" y="230" fill="#FB1F6F" class="text-el text-pink" rx="5"/>
    <rect width="70" height="20" x="280" y="230" fill="#FB1F6F" class="text-el text-pink" rx="5"/>
    <rect width="40" height="20" x="80" y="270" fill="#FB1F6F" class="text-el text-pink" rx="5"/>
    <rect width="40" height="20" x="260" y="270" fill="#FB1F6F" class="text-el text-pink" rx="5"/>
    <rect width="120" height="20" x="60" y="310" fill="#FB1F6F" class="text-el text-pink" rx="5"/>
    <rect width="40" height="20" x="40" y="350" fill="#FB1F6F" class="text-el text-pink" rx="5"/>
    <rect width="40" height="20" x="40" y="390" fill="#FB1F6F" class="text-el text-pink" rx="5"/>
    <rect width="70" height="20" x="60" y="430" fill="#FB1F6F" class="text-el text-pink" rx="5"/>
    <rect width="70" height="20" x="260" y="430" fill="#FB1F6F" class="text-el text-pink" rx="5"/>
    <rect width="40" height="20" x="40" y="470" fill="#FB1F6F" class="text-el text-pink" rx="5"/>
    <rect width="100" height="20" x="40" y="510" fill="#FB1F6F" class="text-el text-pink" rx="5"/>
    <rect width="20" height="20" x="60" y="550" fill="#FB1F6F" class="text-el text-pink" rx="5"/>
    <rect width="20" height="20" x="320" y="550" fill="#FB1F6F" class="text-el text-pink" rx="5"/>
    <rect width="185" height="20" x="140" y="70" fill="#D3D46A" class="text-el text-yellow" rx="5"/>
    <rect width="185" height="20" x="350" y="110" fill="#D3D46A" class="text-el text-yellow" rx="5"/>
    <rect width="50" height="20" x="300" y="510" fill="#D3D46A" class="text-el text-yellow" rx="5"/>
    <rect width="120" height="20" x="210" y="110" fill="#8CD409" class="text-el text-green" rx="5"/>
    <rect width="90" height="20" x="100" y="150" fill="#8CD409" class="text-el text-green" rx="5"/>
    <rect width="90" height="20" x="170" y="230" fill="#8CD409" class="text-el text-green" rx="5"/>
    <rect width="90" height="20" x="150" y="430" fill="#8CD409" class="text-el text-green" rx="5"/>
    <rect width="120" height="20" x="160" y="510" fill="#8CD409" class="text-el text-green" rx="5"/>
    <rect width="380" height="20" x="100" y="390" fill="#5D5D56" class="text-el text-grey" rx="5"/>
    <rect width="185" height="20" x="208" y="150" fill="#fff" class="text-el text-white" rx="5"/>
    <rect width="100" height="20" x="140" y="270" fill="#fff" class="text-el text-white" rx="5"/>
    <rect width="200" height="20" x="100" y="550" fill="#fff" class="text-el text-white" rx="5"/>
  </g>
</svg>
