<svg viewBox="0 0 629 169" xmlns="http://www.w3.org/2000/svg">
  <defs>
    <linearGradient x1="0%" y1="50%" x2="25.7881746%" y2="50%" id="a">
      <stop stop-opacity=".5" offset="0%"/>
      <stop stop-color="#4A4A4A" stop-opacity="0" offset="100%"/>
    </linearGradient>
    <linearGradient x1="95.6642706%" y1="60.4713657%" x2="81.4988868%" y2="60.4713664%" id="b">
      <stop stop-opacity=".5" offset="0%"/>
      <stop stop-color="#4A4A4A" stop-opacity="0" offset="100%"/>
    </linearGradient>
    <linearGradient x1="53.1762575%" y1="0%" x2="53.1762576%" y2="66.1375941%" id="c">
      <stop stop-opacity=".5" offset="0%"/>
      <stop stop-color="#4A4A4A" stop-opacity="0" offset="100%"/>
    </linearGradient>
    <linearGradient x1="54.1699794%" y1="0%" x2="54.169979%" y2="50%" id="d">
      <stop stop-opacity=".5" offset="0%"/>
      <stop stop-color="#4A4A4A" stop-opacity="0" offset="100%"/>
    </linearGradient>
    <linearGradient x1="41.9062623%" y1="0%" x2="41.9062622%" y2="28.9503515%" id="e">
      <stop stop-opacity=".5" offset="0%"/>
      <stop stop-color="#4A4A4A" stop-opacity="0" offset="100%"/>
    </linearGradient>
    <linearGradient x1="85.9240727%" y1="53.2062706%" x2="19.0621671%" y2="52.5348579%" id="f">
      <stop stop-opacity=".5" offset="0%"/>
      <stop stop-color="#4A4A4A" stop-opacity="0" offset="100%"/>
    </linearGradient>
    <linearGradient x1="78.1258046%" y1="53.4204014%" x2="26.0191432%" y2="52.5909266%" id="g">
      <stop stop-opacity=".5" offset="0%"/>
      <stop stop-color="#4A4A4A" stop-opacity="0" offset="100%"/>
    </linearGradient>
    <linearGradient x1="81.8103411%" y1="47.7174633%" x2="-27.326771%" y2="48.6264244%" id="h">
      <stop stop-opacity=".5" offset="0%"/>
      <stop stop-color="#4A4A4A" stop-opacity="0" offset="100%"/>
    </linearGradient>
    <linearGradient x1="0%" y1="50%" x2="50%" y2="50%" id="i">
      <stop stop-opacity=".5" offset="0%"/>
      <stop stop-color="#4A4A4A" stop-opacity="0" offset="100%"/>
    </linearGradient>
  </defs>
  <g fill="none" fill-rule="evenodd">
    <path d="M628.009415 34.2189916v77.1415094h-23.060624V34.2189916h23.060624zM548.801542 10v52.4124651h3.421899c1.438197 0 2.541624-.198369 3.310316-.5951129.768691-.3967439 1.500177-1.1158315 2.194478-2.1572843l14.580266-21.7216207c.843081-1.2894177 1.847324-2.2316704 3.012759-2.8267863 1.165436-.5951159 2.640805-.8926693 4.426153-.8926693h21.126507l-19.936282 27.4495823c-.942266 1.2894178-1.971306 2.4300394-3.087148 3.4218992-1.115842.9918598-2.318454 1.8845202-3.607872 2.678008 2.231685 1.6861617 4.165782 3.9178127 5.802351 6.6950201l21.721621 36.8969998h-20.828952c-1.735754 0-3.23592-.285156-4.500541-.855475s-2.29366-1.574562-3.087148-3.012759l-14.580266-27.3008041c-.694302-1.2398248-1.413389-2.0456988-2.157284-2.4176462-.743895-.3719474-1.859721-.5579183-3.34751-.5579183h-4.463347v34.1446026h-23.060625V0l23.060625 10zM514.67347 51.10532c-.595115.9422668-1.227417 1.6117621-1.896922 2.0085061-.669505.3967439-1.524972.5951129-2.566424.5951129-1.091046 0-2.182076-.2355632-3.273121-.7066966-1.091046-.4711334-2.268862-.9794539-3.533483-1.5249768-1.264621-.5455229-2.690398-1.0538434-4.277374-1.5249768-1.586976-.4711334-3.397093-.7066966-5.430405-.7066966-2.925987 0-5.170036.5579128-6.732215 1.673755-1.562179 1.1158423-2.343257 2.6656-2.343257 4.6493196 0 1.4381966.508321 2.6284105 1.524977 3.5706773 1.016656.9422668 2.368045 1.7729369 4.054206 2.4920353 1.686162.7190983 3.595464 1.4009917 5.727962 2.0457006 2.132499.6447088 4.314557 1.3637964 6.546242 2.1572842 2.231685.7934879 4.413743 1.7233425 6.546242 2.7895917 2.132498 1.0662493 4.0418 2.3804438 5.727961 3.942623 1.686162 1.5621791 3.037551 3.4590825 4.054207 5.690767 1.016656 2.2316846 1.524977 4.9096658 1.524977 8.0340242 0 3.8186601-.694292 7.3397096-2.082895 10.5632539-1.388604 3.223544-3.45908 6.00071-6.211491 8.331581-2.752411 2.33087-6.14948 4.140987-10.191308 5.430405-4.041829 1.289417-8.691102 1.934117-13.947959 1.934117-2.628428 0-5.256817-.247962-7.885246-.743891-2.628428-.49593-5.170031-1.165426-7.624884-2.008507-2.454853-.84308-4.723698-1.847323-6.806604-3.012759-2.082905-1.165435-3.868226-2.417639-5.356016-3.75665l5.356016-8.4803585c.644709-.9918598 1.413389-1.7729377 2.306063-2.343257.892674-.5703194 2.058091-.8554748 3.496288-.8554748 1.339011 0 2.541623.2975535 3.607872.8926693 1.066249.5951159 2.219269 1.2398151 3.459094 1.9341169 1.239825.6943019 2.690398 1.3390011 4.351763 1.934117 1.661365.5951158 3.756637.8926693 6.28588.8926693 1.785347 0 3.297911-.1859709 4.537736-.5579183 1.239824-.3719475 2.231669-.880268 2.975564-1.5249768.743895-.6447089 1.28941-1.3637965 1.636561-2.1572843.347151-.7934878.520723-1.6117599.520723-2.4548407 0-1.5373827-.520718-2.8019849-1.562171-3.7938447-1.041453-.9918598-2.405239-1.847326-4.091401-2.5664244-1.686162-.7190983-3.607861-1.3885936-5.765156-2.008506s-4.351752-1.3266019-6.583437-2.1200897c-2.231684-.7934878-4.426141-1.7481386-6.583436-2.8639808-2.157295-1.1158423-4.078995-2.5292213-5.765156-4.2401794-1.686162-1.7109581-3.049949-3.8062305-4.091402-6.28588-1.041452-2.4796494-1.562171-5.4799803-1.562171-9.0010825 0-3.2731373.632301-6.3850507 1.896922-9.3358336 1.264622-2.9507829 3.161525-5.5419777 5.690768-7.7736622 2.529242-2.2316846 5.703146-4.0046073 9.521806-5.3188215 3.81866-1.3142143 8.281962-1.9713115 13.39004-1.9713115 2.777207 0 5.467587.2479612 8.071219.7438911 2.603632.4959299 5.04605 1.1902213 7.327327 2.0828951 2.281278.8926739 4.364152 1.9465091 6.248686 3.1615373 1.884533 1.2150282 3.545874 2.5416208 4.98407 3.9798175L514.67347 51.10532zM344.859658 34.2189916h18.4485c1.636569 0 3.049948.3719418 4.24018 1.1158367 1.190231.7438948 1.909319 1.7109436 2.157284 2.9011753l7.736467 34.5909372c.595116 2.6284284 1.140631 5.182429 1.636561 7.6620785s.94226 4.9344656 1.339004 7.3645221c.694302-2.4300565 1.425787-4.8724746 2.194479-7.3273275.768691-2.454853 1.524973-5.0212517 2.268868-7.6992731l9.670584-34.6653263c.297558-1.1406387 1.016646-2.0952895 2.157284-2.8639808 1.140639-.7686913 2.454834-1.1530312 3.942623-1.1530312h10.265698c1.636569 0 3.037549.3843399 4.202985 1.1530312 1.165435.7686913 1.896921 1.7233421 2.194479 2.8639808l9.224249 34.6653263c.694302 2.6284284 1.400992 5.182429 2.12009 7.6620785.719098 2.4796495 1.400992 4.9840579 2.045701 7.5133003.396744-2.4796494.880268-4.9468636 1.450587-7.4017166.57032-2.454853 1.177825-5.0460478 1.822534-7.7736622l8.182802-34.5909372c.247965-1.1902317.954654-2.1572805 2.12009-2.9011753 1.165435-.7438949 2.492027-1.1158367 3.979817-1.1158367h17.555831l-23.953294 77.1415094h-18.746057c-.99186 0-1.834928-.297554-2.52923-.89267-.694301-.595115-1.239816-1.58696-1.63656-2.975564l-11.009589-38.459171c-.495929-1.7357546-.967056-3.4466871-1.413393-5.1328487-.446337-1.6861616-.843075-3.372298-1.190226-5.0584596-.34715 1.7357546-.73149 3.4590851-1.153031 5.1700433-.42154 1.7109581-.905065 3.4342886-1.450587 5.1700433l-11.158367 38.3103927c-.743895 2.578835-2.380439 3.868234-4.909682 3.868234h-17.853387l-23.953294-77.1415094zm-31.74762-1.1902258c5.108078 0 9.782147.7934759 14.022348 2.3804516 4.240201 1.5869756 7.885231 3.893015 10.935199 6.9181874 3.049969 3.0251723 5.430397 6.7321927 7.141355 11.1211723 1.710958 4.3889795 2.566425 9.3606021 2.566425 14.9150169 0 1.7357547-.074389 3.1491337-.223168 4.2401794-.148779 1.0910458-.421536 1.9589101-.81828 2.603619-.396744.6447088-.929861 1.091039-1.599366 1.339004-.669505.2479649-1.524971.3719455-2.566424.3719455h-44.484689c.743895 6.4470887 2.702788 11.1211578 5.87674 14.0223477 3.173951 2.9011898 7.265311 4.351763 12.274203 4.351763 2.678022 0 4.984061-.3223496 6.918188-.9670584 1.934126-.6447089 3.657457-1.3637965 5.170043-2.1572843 1.512586-.7934878 2.901169-1.5125754 4.16579-2.1572842 1.264621-.6447089 2.591214-.9670585 3.979818-.9670585 1.83494 0 3.223523.6694953 4.16579 2.008506l6.69502 8.2571915c-2.380464 2.7276143-4.946862 4.9468673-7.699273 6.6578253-2.752411 1.710958-5.579169 3.049949-8.480359 4.017012-2.90119.967064-5.802336 1.636559-8.703526 2.008506-2.90119.371948-5.665958.557919-8.294386.557919-5.405636 0-10.476443-.880263-15.212573-2.640814-4.736131-1.760551-8.877083-4.376542-12.422982-7.848051-3.545899-3.4715094-6.347861-7.7860348-8.40597-12.9437057s-3.087148-11.1583326-3.087148-18.0021651c0-5.1576709.880262-10.0425071 2.640813-14.6546551 1.760552-4.612148 4.289756-8.653916 7.58769-12.1254253 3.297934-3.4715092 7.290109-6.2238789 11.976647-8.2571914 4.686537-2.0333126 9.98051-3.0499536 15.882075-3.0499536zm.446335 15.91927c-4.413776 0-7.860437 1.2522042-10.340087 3.7566501-2.479649 2.504446-4.116193 6.1122819-4.909681 10.8236158h28.788586c0-1.8349406-.235563-3.6202614-.706696-5.356016-.471134-1.7357547-1.239813-3.2855123-2.306063-4.6493195-1.066249-1.3638072-2.46723-2.4672347-4.202984-3.3103155-1.735755-.8430808-3.843425-1.2646149-6.323075-1.2646149zm-39.81541-5.7237859c0 1.5869757-.297553 3.0995392-.892669 4.5377358-.595116 1.4381967-1.289408 2.6780029-2.082895 3.7194556l-32.210486 42.5505722h34.442159v17.1094955H212v-9.373028c0-.942267.260359-2.1200825.781086-3.5334827.520726-1.4134002 1.252212-2.7647889 2.194478-4.0542066l32.508042-43.0712959h-33.400711V34h59.660068v9.2242499zM205.280888 51.10532c-.595116.9422668-1.227417 1.6117621-1.896923 2.0085061-.669505.3967439-1.524971.5951129-2.566424.5951129-1.091046 0-2.182075-.2355632-3.273121-.7066966-1.091046-.4711334-2.268862-.9794539-3.533483-1.5249768-1.264621-.5455229-2.690398-1.0538434-4.277374-1.5249768-1.586975-.4711334-3.397092-.7066966-5.430405-.7066966-2.925986 0-5.170035.5579128-6.732215 1.673755-1.562179 1.1158423-2.343257 2.6656-2.343257 4.6493196 0 1.4381966.508321 2.6284105 1.524977 3.5706773 1.016656.9422668 2.368045 1.7729369 4.054207 2.4920353 1.686161.7190983 3.595463 1.4009917 5.727961 2.0457006 2.132499.6447088 4.314558 1.3637964 6.546242 2.1572842 2.231685.7934879 4.413744 1.7233425 6.546242 2.7895917 2.132499 1.0662493 4.0418 2.3804438 5.727962 3.942623 1.686161 1.5621791 3.03755 3.4590825 4.054206 5.690767 1.016657 2.2316846 1.524977 4.9096658 1.524977 8.0340242 0 3.8186601-.694291 7.3397096-2.082895 10.5632539-1.388604 3.223544-3.45908 6.00071-6.211491 8.331581-2.752411 2.33087-6.14948 4.140987-10.191308 5.430405-4.041829 1.289417-8.691102 1.934117-13.947959 1.934117-2.628428 0-5.256817-.247962-7.885246-.743891-2.628428-.49593-5.170031-1.165426-7.624884-2.008507-2.454853-.84308-4.723698-1.847323-6.806603-3.012759-2.082906-1.165435-3.868227-2.417639-5.356016-3.75665l5.356016-8.4803585c.644708-.9918598 1.413388-1.7729377 2.306062-2.343257.892674-.5703194 2.058092-.8554748 3.496288-.8554748 1.339011 0 2.541623.2975535 3.607872.8926693 1.06625.5951159 2.219269 1.2398151 3.459094 1.9341169 1.239825.6943019 2.690398 1.3390011 4.351763 1.934117 1.661365.5951158 3.756638.8926693 6.28588.8926693 1.785348 0 3.297911-.1859709 4.537736-.5579183 1.239825-.3719475 2.23167-.880268 2.975564-1.5249768.743895-.6447089 1.28941-1.3637965 1.636561-2.1572843.347151-.7934878.520724-1.6117599.520724-2.4548407 0-1.5373827-.520719-2.8019849-1.562172-3.7938447-1.041453-.9918598-2.405239-1.847326-4.091401-2.5664244-1.686162-.7190983-3.607861-1.3885936-5.765156-2.008506s-4.351752-1.3266019-6.583437-2.1200897c-2.231684-.7934878-4.426141-1.7481386-6.583436-2.8639808-2.157295-1.1158423-4.078994-2.5292213-5.765156-4.2401794-1.686162-1.7109581-3.049949-3.8062305-4.091401-6.28588-1.041453-2.4796494-1.562172-5.4799803-1.562172-9.0010825 0-3.2731373.632301-6.3850507 1.896923-9.3358336 1.264621-2.9507829 3.161524-5.5419777 5.690767-7.7736622 2.529242-2.2316846 5.703146-4.0046073 9.521806-5.3188215 3.81866-1.3142143 8.281962-1.9713115 13.39004-1.9713115 2.777208 0 5.467587.2479612 8.071219.7438911 2.603632.4959299 5.04605 1.1902213 7.327328 2.0828951 2.281277.8926739 4.364151 1.9465091 6.248685 3.1615373 1.884534 1.2150282 3.545874 2.5416208 4.98407 3.9798175l-5.207237 8.1084132zm-104.64895-16.8863284v48.9480357c0 3.8186602.867864 6.7693988 2.603619 8.8523044 1.735754 2.0829055 4.289755 3.1243427 7.662078 3.1243427 2.529243 0 4.897272-.5207186 7.10416-1.5621714 2.206888-1.0414527 4.351753-2.504424 6.434659-4.3889576V34.2189916h23.060624v77.1415094h-14.282709c-2.876393 0-4.760899-1.289399-5.653573-3.868234l-1.413393-4.463347c-1.487789 1.438197-3.025149 2.739993-4.612125 3.905429-1.586975 1.165435-3.28551 2.15728-5.095654 2.975564-1.810144.818284-3.75664 1.462984-5.839545 1.934117-2.082906.471133-4.364149.706697-6.843799.706697-4.2154036 0-7.9472201-.731486-11.1955609-2.194479-3.2483408-1.462993-5.9883123-3.508673-8.2199969-6.137102-2.2316845-2.628428-3.9178208-5.7279437-5.0584596-9.2986389-1.1406388-3.5706953-1.7109496-7.4884827-1.7109496-11.7534798V34.2189916h23.060625zM0 10L23.0606248 0v42.4017939c2.8763933-2.8268004 6.1370835-5.0956456 9.7821682-6.8066038 3.6450847-1.7109581 7.9224159-2.5664243 12.8321218-2.5664243 4.0170322 0 7.7364506.8678643 11.1583669 2.6036189 3.4219162 1.7357546 6.3726548 4.2773572 8.8523043 7.624884s4.4261451 7.4512851 5.8395453 12.3113981c1.4134002 4.8601129 2.1200897 10.3896483 2.1200897 16.588772 0 5.8023797-.805874 11.1583422-2.4176461 16.0680482-1.6117722 4.9097059-3.8682194 9.174639-6.7694092 12.794927-2.9011899 3.620288-6.3726471 6.447046-10.4144757 8.480359-4.0418287 2.033313-8.5175288 3.049954-13.4272348 3.049954-2.2812775 0-4.3269576-.223165-6.1371017-.669502-1.8101441-.446337-3.4714844-1.078638-4.9840705-1.896923-1.5125862-.818284-2.9011691-1.797731-4.1657903-2.93837-1.2646213-1.140638-2.4920293-2.380445-3.6822611-3.719455l-.8182802 3.868234c-.3471509 1.586975-.9794521 2.678005-1.8969224 3.27312-.9174703.595116-2.1200822.89267-3.6078719.89267H0V10zm37.6408907 40.3614289c-1.6861616 0-3.2111232.1611748-4.5749304.4835292-1.3638072.3223545-2.6284094.7810827-3.7938447 1.3761986-1.1654352.5951159-2.2440666 1.3513976-3.2359264 2.2688679-.9918597.9174703-1.9837047 1.9713055-2.9755644 3.1615373v32.7312093c1.7357546 1.9341266 3.6202599 3.2855153 5.6535725 4.0542066 2.0333125.7686914 4.1657791 1.1530313 6.3974636 1.1530313 2.1324986 0 4.0913923-.4215341 5.8767399-1.2646149 1.7853476-.8430809 3.3351053-2.1944695 4.6493195-4.0542066 1.3142142-1.8597371 2.3432533-4.2773591 3.0871481-7.2529385.7438949-2.9755793 1.1158367-6.5958133 1.1158367-10.8608103 0-4.0666252-.2975535-7.4884901-.8926693-10.2656975-.5951159-2.7772074-1.425786-5.0212565-2.4920353-6.7322147-1.0662493-1.7109581-2.3432496-2.9383662-3.8310393-3.682261-1.4877896-.7438949-3.1491299-1.1158367-4.9840705-1.1158367z" fill="#4A4A4A"/>
    <path d="M23.0123863 92.3302142s.0482385-1.4304516.0482385-2.1406772V42.3730281c2.8763933-2.8268004 6.1370835-5.0956456 9.7821682-6.8066037C36.4878777 33.8554662 40.7652089 33 45.6749148 33c4.0170322 0 7.7364506.8678643 11.1583669 2.6036189 3.4219162 1.7357547 6.3726548 4.2773572 8.8523043 7.624884s4.4261451 7.4512851 5.8395453 12.3113981c1.4134002 4.8601129 2.1200897 10.3896483 2.1200897 16.588772 0 5.8023797-.805874 11.1583422-2.4176461 16.0680482-1.6117722 4.9097059-3.8682194 9.1746391-6.7694092 12.7949268-2.9011899 3.620289-6.3726471 6.447047-10.4144757 8.480359-4.0418287 2.033313-8.5175288 3.049954-13.4272348 3.049954-2.2812775 0-4.3269576-.223165-6.1371017-.669502-1.8101441-.446337-3.4714844-1.078638-4.9840705-1.896923-1.5125862-.818284-2.9011691-1.797731-4.1657903-2.938369-1.2646213-1.140639-2.4548767-2.307986-3.6451084-3.646996l1.328002-11.0399568zm14.6285044-41.9975511c-1.6861616 0-3.2111232.1611748-4.5749304.4835293-1.3638072.3223544-2.6284094.7810827-3.7938447 1.3761985-1.1654352.5951159-2.2440666 1.3513976-3.2359264 2.2688679-.9918597.9174703-1.9837047 1.9713056-2.9755644 3.1615373v32.7312093c1.7357546 1.9341266 3.6202599 3.2855153 5.6535725 4.0542067 2.0333125.7686913 4.1657791 1.1530312 6.3974636 1.1530312 2.1324986 0 4.0913923-.4215341 5.8767399-1.2646149 1.7853476-.8430808 3.3351053-2.1944695 4.6493195-4.0542066 1.3142142-1.8597371 2.3432533-4.2773591 3.0871481-7.2529385.7438949-2.9755793 1.1158367-6.5958132 1.1158367-10.8608103 0-4.0666252-.2975535-7.4884901-.8926693-10.2656975-.5951159-2.7772074-1.425786-5.0212565-2.4920353-6.7322146-1.0662493-1.7109582-2.3432496-2.9383663-3.8310393-3.6822611-1.4877896-.7438948-3.1491299-1.1158367-4.9840705-1.1158367z" fill="url(#a)"/>
    <path d="M124.436454 87.6168185v1.3567354c-2.082906 1.8845336-4.227771 3.3475048-6.434659 4.3889576-2.206888 1.0414527-4.574917 1.5621713-7.10416 1.5621713-3.372323 0-5.926324-1.0414371-7.662078-3.1243427-1.735755-2.0829055-2.603619-5.0336441-2.603619-8.8523043V34H77.571313v48.9480358c0 4.2649971.5703108 8.1827845 1.7109496 11.7534797 1.1406388 3.5706952 2.8267751 6.6702105 5.0584596 9.2986395 2.2316846 2.628428 4.9716561 4.674108 8.2199969 6.137101 3.2483408 1.462993 6.9801573 2.194479 11.1955609 2.194479 2.47965 0 4.760893-.235563 6.843799-.706697 2.082905-.471133 4.029401-1.115832 5.839545-1.934116 1.810144-.818285 3.508679-1.81013 5.095654-2.975565 1.586976-1.165435 3.124336-2.467232 4.612125-3.905428l.04369.137967-1.683695-13.771134-.070944-1.5599435zm2.104335 16.4353815l.030524.096391v-.083312l-.030524-.013079z" fill="url(#b)"/>
    <path d="M256.668023 70l14.301503-18.8905042h-23.568815L233.143111 70h23.524912z" fill="url(#c)"/>
    <path d="M237.968733 93.9762959c.017415-.0232999.034782-.0465335.052101-.0697002 4.464364-5.9715687 13.524788-17.9065952 13.524788-17.9065952h-23.335624L215.130737 93.976296h22.837996v-e-7z" fill="url(#d)" transform="rotate(180 233.338 84.988)"/>
    <path d="M298.123034 77.0000001c.749776 6.3900614 2.382537 11.0273235 5.538339 13.9119237 3.173951 2.9011899 7.265312 4.351763 12.274204 4.351763 2.678021 0 4.98406-.3223496 6.918187-.9670584 1.934127-.6447089 3.657457-1.3637964 5.170043-2.1572843 1.512586-.7934878 2.901169-1.5125754 4.165791-2.1572842 1.264621-.6447089 2.591213-.9670585 3.979817-.9670585 1.834941 0 3.223524.6694953 4.16579 2.0085061l6.69502 8.2571914c-2.380463 2.7276141-4.946862 4.9468671-7.699273 6.6578251-2.752411 1.710959-5.579169 3.049949-8.480358 4.017012-2.90119.967064-5.802337 1.636559-8.703527 2.008507-2.901189.371947-5.665957.557918-8.294386.557918-5.405635 0-10.476442-.880263-15.212573-2.640814-4.73613-1.760551-8.877083-4.376542-12.422982-7.848051-3.545898-3.4715092-6.34786-7.7860346-8.405969-12.9437055-1.376492-3.4495215-2.042102-7.3829013-2.497972-11.5866363-.013546-.124906-.024418-.2940793-.032507-.5027542h22.842353l.000003e-7z" fill="url(#e)"/>
    <path d="M422.205854 57l4.031838 15.15191c.694302 2.6284284 1.400992 5.182429 2.12009 7.6620785.694358 2.3943364 1.354026 4.8117574 1.979025 7.2523306l-5.452911 23.6191509h-2.068103c-.991859 0-1.834928-.297553-2.529229-.892669-.694302-.595116-1.239817-1.586961-1.636561-2.975565L412 83.587158 422.205854 57z" fill="url(#f)"/>
    <path d="M373.608001 55.6802504l3.744075 16.7403368c.595116 2.6284284 1.14063 5.1824291 1.63656 7.6620786.487641 2.4382029.927326 4.8523957 1.319068 7.2426484l-7.124709 23.6288328h-4.460056l-8.097288-26.0772906 12.98235-29.196606z" fill="url(#g)"/>
    <path d="M390 54.752894l4.504996-16.1486766c.297558-1.1406387 1.016645-2.0952894 2.157284-2.8639808.45815-.3087533.9443-.5554986 1.458453-.7402366l7.023634 25.008123c-.307763 1.4912945-.643087 2.9733873-1.005981 4.4463109-.421541 1.7109581-.905065 3.4342887-1.450588 5.1700433L398.881665 82.6922 390 54.752894z" fill="url(#h)"/>
    <path d="M548.849438 45.951145v16.4124651h3.4219c1.438196 0 2.541624-.198369 3.310315-.5951129.768691-.3967439 1.500177-1.1158315 2.194479-2.1572843l9.169087-13.6600679h5.843595v44h-8.732888l-5.238347-9.8085371c-.694301-1.2398247-1.413389-2.0456987-2.157284-2.4176462-.743895-.3719474-1.85972-.5579183-3.34751-.5579183h-4.463347V89.951145h-.060624v-44h.060624z" fill="url(#i)"/>
    <path d="M560.10726 167.494454v-52.293056h2.732903c.910973 0 1.436526.43796 1.576675 1.313895l.473003 7.568041c1.016084-1.436534 2.102228-2.750416 3.258462-3.941688 1.156234-1.191271 2.391284-2.2161 3.705186-3.074516 1.313903-.858417 2.715377-1.524117 4.204467-1.997122 1.489089-.473005 3.056989-.709504 4.703747-.709504 3.819077 0 6.867285 1.112421 9.144716 3.337296 2.277431 2.224875 3.819053 5.316879 4.624913 9.276105.630673-2.172319 1.515354-4.046792 2.65407-5.623475 1.138715-1.576683 2.443839-2.881806 3.91541-3.915409 1.47157-1.033604 3.074507-1.804415 4.808859-2.312457 1.734351-.508043 3.512472-.76206 5.334417-.76206 2.592767 0 4.922719.429202 6.989926 1.287618s3.827809 2.128503 5.281861 3.810298c1.454053 1.681795 2.566473 3.748971 3.337296 6.201589s1.156228 5.255568 1.156228 8.408933v33.425512h-5.04536v-33.425512c0-5.11546-1.103661-9.013312-3.311017-11.693673-2.207357-2.680361-5.360675-4.020521-9.460051-4.020521-1.821945 0-3.565029.33285-5.229305.998561-1.664277.66571-3.135826 1.655502-4.414691 2.969404-1.278865 1.313903-2.294934 2.951877-3.048238 4.913971s-1.129951 4.239491-1.129951 6.832258v33.425512h-4.992804v-33.425512c0-5.080422-1.016069-8.969515-3.048238-11.667395-2.03217-2.69788-4.992785-4.046799-8.881937-4.046799-2.838029 0-5.465794.849644-7.883375 2.548958-2.417581 1.699314-4.572348 4.055543-6.464368 7.06876v39.521988h-4.992804zm-60.047962-45.30313c-.175187.175187-.341612.324093-.499281.446724-.157668.122631-.376648.183946-.656947.183946-.350374 0-.832131-.236499-1.445286-.709504-.613154-.473005-1.427762-.989799-2.443846-1.550397-1.016085-.560599-2.286172-1.077393-3.810298-1.550397-1.524127-.473005-3.372322-.709504-5.544641-.709504-3.013216 0-5.684778.534312-8.014765 1.602953-2.329987 1.06864-4.292052 2.601504-5.886254 4.598635-1.594201 1.997132-2.811733 4.414676-3.65263 7.252706-.840898 2.838029-1.26134 6.026385-1.26134 9.565162 0 3.678927.429202 6.937356 1.287618 9.775385.858416 2.83803 2.075947 5.229296 3.65263 7.173872 1.576683 1.944575 3.486193 3.424883 5.728586 4.440968 2.242394 1.016084 4.730012 1.524119 7.462929 1.524119 2.522693 0 4.633664-.297813 6.332978-.893449 1.699314-.595636 3.100789-1.243818 4.204467-1.944566 1.103678-.700748 1.9796-1.34893 2.627792-1.944566.648192-.595636 1.164986-.893449 1.550397-.893449.455486 0 .805855.175184 1.051117.525558l1.366451 1.681787c-.80586 1.051122-1.821929 2.032154-3.048238 2.943127-1.226309.910972-2.610265 1.699302-4.151911 2.365012-1.541646.665711-3.214656 1.182505-5.019082 1.550398-1.804426.367892-3.687658.551836-5.649753.551836-3.328553 0-6.368001-.604386-9.118437-1.813177-2.750436-1.20879-5.115425-2.960633-7.095038-5.255583-1.979613-2.29495-3.521235-5.106659-4.624913-8.435212-1.103678-3.328553-1.655509-7.112535-1.655509-11.35206 0-3.994264.525553-7.638098 1.576675-10.931614 1.051122-3.293515 2.583985-6.131502 4.598635-8.514045 2.014651-2.382543 4.48475-4.230739 7.410373-5.544641 2.925623-1.313902 6.280404-1.970844 10.064443-1.970844 3.398627 0 6.420558.543072 9.065881 1.629231 2.645324 1.086159 4.948998 2.557708 6.911093 4.41469l-1.313896 1.786899zm38.275247-5.912532c2.96066 1.278865 5.457037 3.092023 7.489207 5.439529 2.032169 2.347506 3.58255 5.176733 4.651191 8.487768 1.068641 3.311034 1.602953 7.016183 1.602953 11.115559 0 4.099375-.534312 7.795766-1.602953 11.089281-1.068641 3.293516-2.619022 6.113984-4.651191 8.46149-2.03217 2.347505-4.528547 4.151904-7.489207 5.413251-2.96066 1.261346-6.315441 1.89201-10.064442 1.89201-3.749002 0-7.103783-.630664-10.064443-1.89201-2.96066-1.261347-5.465797-3.065746-7.515484-5.413251-2.049688-2.347506-3.608829-5.167974-4.67747-8.46149-1.068641-3.293515-1.602953-6.989906-1.602953-11.089281 0-4.099376.534312-7.804525 1.602953-11.115559 1.068641-3.311035 2.627782-6.140262 4.67747-8.487768 2.049687-2.347506 4.554824-4.160664 7.515484-5.439529 2.96066-1.278865 6.315441-1.918288 10.064443-1.918288 3.749001 0 7.103782.639423 10.064442 1.918288zm-10.064442 47.9572c3.118328 0 5.842445-.534312 8.172432-1.602953 2.329987-1.068641 4.274533-2.601504 5.833698-4.598635 1.559164-1.997132 2.72414-4.405917 3.494963-7.226428.770823-2.82051 1.156228-5.982588 1.156228-9.486328 0-3.468703-.385405-6.622021-1.156228-9.460051-.770823-2.838029-1.935799-5.264332-3.494963-7.278983-1.559165-2.01465-3.503711-3.565032-5.833698-4.651191-2.329987-1.08616-5.054104-1.629231-8.172432-1.629231-3.118329 0-5.842446.543071-8.172433 1.629231-2.329987 1.086159-4.274533 2.636541-5.833698 4.651191-1.559164 2.014651-2.732899 4.440954-3.521241 7.278983-.788341 2.83803-1.182506 5.991348-1.182506 9.460051 0 3.50374.394165 6.665818 1.182506 9.486328.788342 2.820511 1.962077 5.229296 3.521241 7.226428 1.559165 1.997131 3.503711 3.529994 5.833698 4.598635s5.054104 1.602953 8.172433 1.602953z" fill="#4A4A4A"/>
  </g>
</svg>
