1.34k - 22.9% saving
<svg xmlns="http://www.w3.org/2000/svg" width="1380" height="660" viewBox="0 0 1380 660">
  <g fill="none" fill-rule="evenodd">
    <rect width="1020" height="660" x="180" fill="#4A4A4A" rx="25"/>
    <path fill="#F1C40F" d="M210 30h960v590H210z"/>
    <path fill="#D8D8D8" d="M1380 640c0 11.045695-8.94838 20-20.00663 20H20.0066253C8.95727124 660 0 651.048124 0 640v-20h1380v20z"/>
    <path fill="#C6C6C6" d="M590.339278 620c-.221259.832275-.339278 1.703671-.339278 2.599104v-2.589982C590 625.521186 594.478763 630 600.003597 630h179.992806C785.51855 630 790 625.525828 790 620.006656V620H590.339278z"/>
    <g fill="#FFF">
      <path d="M614.952252 478.947032l-81.729016-223.783419c-9.506634 21.29471-14.83374 44.86029-14.83374 69.683484 0 67.774258 39.412106 126.344484 96.562756 154.099935zM805.38813 316.20671c0-21.161129-7.605959-35.815904-14.129545-47.222387-8.685073-14.104162-16.825699-26.048226-16.825699-40.152388 0-15.739709 11.945236-30.391225 28.770935-30.391225.759618 0 1.480114.094484 2.220171.136838-30.48252-27.90858-71.094366-44.948258-115.699911-44.948258-59.856585 0-112.517992 30.690968-143.15374 77.177033 4.019781.120548 7.80809.205258 11.02587.205258 17.921114 0 45.661838-2.173129 45.661838-2.173129 9.23604-.544097 10.324935 13.012709 1.098675 14.104161 0 0-9.281683 1.091452-19.609878 1.63229l62.392991 185.465323 37.49513-112.38042-26.694211-73.091419c-9.22626-.540839-17.966756-1.63229-17.966756-1.63229-9.23278-.540839-8.150407-14.648258 1.082374-14.104162 0 0 28.294951 2.17313 45.130431 2.17313 17.917854 0 45.661837-2.17313 45.661837-2.17313 9.242561-.544096 10.328195 13.01271 1.098675 14.104162 0 0-9.301244 1.091451-19.609878 1.63229l61.917008 184.061097 17.089773-57.071516c7.407089-23.682871 13.04391-40.693226 13.04391-55.351258zm-112.658179 23.617709l-51.406244 149.281258c15.348846 4.509162 31.581195 6.975517 48.400374 6.975517 19.952195 0 39.08609-3.447033 56.896358-9.705775-.459683-.733064-.876984-1.511742-1.219301-2.358838l-52.671187-144.192162zm147.333269-97.126161c.736796 5.454 1.154097 11.308742 1.154097 17.606581 0 17.375258-3.247122 36.907355-13.02761 61.329806l-52.33539 151.216549c50.936781-29.684226 85.197829-84.833484 85.197829-148.000839.003261-29.768936-7.605959-57.762226-20.988926-82.152097z"/>
      <path d="M689.724081 125.258065C579.599049 125.258065 490 214.792935 490 324.847097c0 110.067193 89.599049 199.598806 199.724081 199.598806 110.121773 0 199.733862-89.531613 199.733862-199.598806-.00326-110.054162-89.612089-199.589032-199.733862-199.589032zm0 390.039193c-105.07504 0-190.566284-85.436226-190.566284-190.450161 0-105.00742 85.487983-190.437129 190.566284-190.437129 105.071781 0 190.556504 85.429709 190.556504 190.437129 0 105.013935-85.484723 190.450161-190.556504 190.450161z"/>
    </g>
  </g>
</svg>
